<svg width="28" height="28" viewBox="0 0 28 28" fill="none" xmlns="http://www.w3.org/2000/svg">
<path d="M4 19.8333C4 20.4777 4.52233 21 5.16667 21H23.8333C24.4777 21 25 20.4777 25 19.8333V19.8333C25 19.189 24.4777 18.6667 23.8333 18.6667H5.16667C4.52233 18.6667 4 19.189 4 19.8333V19.8333ZM4 14C4 14.6443 4.52233 15.1667 5.16667 15.1667H23.8333C24.4777 15.1667 25 14.6443 25 14V14C25 13.3557 24.4777 12.8333 23.8333 12.8333H5.16667C4.52233 12.8333 4 13.3557 4 14V14ZM5.16667 7C4.52233 7 4 7.52233 4 8.16667V8.16667C4 8.811 4.52233 9.33333 5.16667 9.33333H23.8333C24.4777 9.33333 25 8.811 25 8.16667V8.16667C25 7.52233 24.4777 7 23.8333 7H5.16667Z" fill="white"/>
</svg>
