<svg width="28" height="28" viewBox="0 0 28 28" fill="none" xmlns="http://www.w3.org/2000/svg">
<g clip-path="url(#clip0)">
<path fill-rule="evenodd" clip-rule="evenodd" d="M6.17546 6.17552C6.39426 5.9568 6.69096 5.83392 7.00034 5.83392C7.30971 5.83392 7.60642 5.9568 7.82521 6.17552L14.0007 12.351L20.1761 6.17552C20.2838 6.06409 20.4125 5.97521 20.5549 5.91406C20.6972 5.85291 20.8503 5.82073 21.0052 5.81938C21.1601 5.81803 21.3138 5.84755 21.4571 5.90622C21.6005 5.96488 21.7308 6.05151 21.8403 6.16106C21.9499 6.27061 22.0365 6.40087 22.0952 6.54426C22.1539 6.68765 22.1834 6.84128 22.182 6.9962C22.1807 7.15111 22.1485 7.30421 22.0873 7.44656C22.0262 7.5889 21.9373 7.71764 21.8259 7.82527L15.6504 14.0007L21.8259 20.1762C22.0384 20.3962 22.156 20.691 22.1534 20.9969C22.1507 21.3028 22.028 21.5954 21.8117 21.8117C21.5954 22.0281 21.3027 22.1508 20.9968 22.1534C20.6909 22.1561 20.3962 22.0385 20.1761 21.8259L14.0007 15.6505L7.82521 21.8259C7.60516 22.0385 7.31045 22.1561 7.00453 22.1534C6.69862 22.1508 6.406 22.0281 6.18968 21.8117C5.97336 21.5954 5.85065 21.3028 5.84799 20.9969C5.84534 20.691 5.96294 20.3962 6.17546 20.1762L12.3509 14.0007L6.17546 7.82527C5.95674 7.60648 5.83386 7.30977 5.83386 7.0004C5.83386 6.69102 5.95674 6.39432 6.17546 6.17552V6.17552Z" fill="white"/>
</g>
<defs>
<clipPath id="clip0">
<rect width="28" height="28" fill="white"/>
</clipPath>
</defs>
</svg>
