<svg width="125" height="30" fill="none" xmlns="http://www.w3.org/2000/svg"><path d="M17.42 8.145c-.591-.752-1.365-1.35-2.318-1.795-.955-.444-1.876-.665-2.763-.665-.457 0-.92.04-1.39.121-.47.08-.894.236-1.27.464-.377.23-.693.523-.949.887-.255.363-.382.827-.382 1.39 0 .485.1.887.302 1.21.202.324.497.604.886.847.39.242.853.464 1.391.666s1.142.41 1.814.625c.968.323 1.976.678 3.025 1.068 1.048.389 2.003.908 2.862 1.552a8.159 8.159 0 012.138 2.4c.563.954.846 2.143.846 3.568 0 1.64-.302 3.058-.908 4.253a8.484 8.484 0 01-2.44 2.965c-1.022.78-2.19 1.357-3.509 1.733a14.761 14.761 0 01-4.072.566c-2.044 0-4.02-.357-5.928-1.07C2.85 28.222 1.263 27.208 0 25.89l4.517-4.598c.7.861 1.619 1.58 2.763 2.157 1.142.578 2.278.867 3.407.867.51 0 1.008-.053 1.493-.161a3.668 3.668 0 001.27-.526c.361-.242.65-.563.867-.967.215-.405.324-.887.324-1.453 0-.538-.134-.993-.405-1.372-.268-.376-.652-.719-1.148-1.027-.498-.308-1.116-.591-1.854-.846-.74-.256-1.58-.53-2.52-.828a23.915 23.915 0 01-2.683-1.048 9.02 9.02 0 01-2.339-1.553 7.156 7.156 0 01-1.652-2.299c-.417-.9-.626-1.997-.626-3.286 0-1.586.324-2.943.968-4.072a8.397 8.397 0 012.541-2.782A10.92 10.92 0 018.473.502 16.123 16.123 0 0112.461 0c1.612 0 3.26.296 4.94.887a12.727 12.727 0 014.415 2.62L17.42 8.145zM42.529 29.277L31.923 16.132h-.081v13.145h-6.736V.726h6.736V12.34h.121L42.165.726h8.63L38.496 13.87l13.027 15.404h-8.994v.002zM53.78 29.277V.726h6.935v28.551h-6.936zM64.477 29.277V.726h6.935v22.543H82.46v6.008H64.477zM85.477 29.277V.726h6.935v22.543h11.048v6.008H85.477z" fill="#F5F4F9"/><path d="M115.719 29.277l-6.25-10.08-6.008 10.08h-8.227l10.002-15.083L96.04.726h8.308l5.323 8.872 5.242-8.872h8.024l-9.032 13.468 10.323 15.083h-8.509z" fill="#fff"/></svg>