<svg width="42" height="10" viewBox="0 0 42 10" fill="none" xmlns="http://www.w3.org/2000/svg">
<path d="M5.80675 2.71516C5.60967 2.4642 5.35162 2.26499 5.03403 2.11683C4.71572 1.96867 4.40876 1.89494 4.11314 1.89494C3.96073 1.89494 3.80618 1.90841 3.64951 1.93535C3.49284 1.96229 3.35177 2.01404 3.22629 2.08989C3.10081 2.16645 2.99518 2.26428 2.91011 2.38551C2.82504 2.50673 2.7825 2.66128 2.7825 2.84914C2.7825 3.01078 2.81582 3.14476 2.88317 3.25252C2.95052 3.36027 3.04906 3.45385 3.17879 3.53467C3.30852 3.61548 3.46307 3.68921 3.64242 3.75656C3.82178 3.8239 4.02311 3.89338 4.24713 3.96498C4.56969 4.07274 4.90571 4.19112 5.25521 4.32086C5.60471 4.45059 5.92301 4.62356 6.20941 4.83837C6.49582 5.05317 6.73401 5.32043 6.92188 5.63803C7.10974 5.95633 7.20403 6.35262 7.20403 6.82759C7.20403 7.37417 7.10336 7.84702 6.90132 8.24543C6.69999 8.64455 6.42847 8.97349 6.08819 9.23366C5.7472 9.49383 5.358 9.68595 4.91847 9.81143C4.47894 9.93691 4.02666 10 3.5609 10C2.87963 10 2.22104 9.8809 1.58514 9.64341C0.94995 9.40734 0.421097 9.06919 0 8.62966L1.50574 7.09698C1.73898 7.38409 2.04523 7.62371 2.42663 7.81582C2.80732 8.00865 3.18588 8.10506 3.56231 8.10506C3.73245 8.10506 3.89834 8.08734 4.05997 8.05118C4.22161 8.01574 4.36268 7.9569 4.4832 7.87608C4.60371 7.79526 4.70013 7.68822 4.77244 7.55352C4.84404 7.41883 4.88019 7.2579 4.88019 7.06933C4.88019 6.88998 4.83553 6.73827 4.7455 6.61208C4.65618 6.4866 4.52786 6.37247 4.36268 6.26967C4.1968 6.16688 3.9905 6.07259 3.74451 5.98752C3.4978 5.90245 3.21778 5.811 2.90444 5.71175C2.5996 5.61321 2.30186 5.49695 2.01049 5.36226C1.71913 5.22756 1.45966 5.0553 1.23068 4.84475C1.00241 4.6342 0.818092 4.37899 0.679853 4.07841C0.540905 3.77853 0.471431 3.41273 0.471431 2.98313C0.471431 2.45427 0.579186 2.00199 0.793988 1.62555C1.00879 1.24911 1.29165 0.940026 1.64115 0.698284C1.99064 0.456543 2.3848 0.279314 2.82433 0.167305C3.26173 0.0560045 3.70552 0 4.15355 0C4.69091 0 5.24032 0.0985396 5.80037 0.295619C6.36041 0.492698 6.85099 0.784064 7.27208 1.16901L5.80675 2.71516Z" fill="#252636"/>
<path d="M14.1764 9.75893L10.641 5.3771H10.614V9.75893H8.3689V0.241699H10.614V4.1131H10.6544L14.0551 0.241699H16.9319L12.8322 4.62352L17.1744 9.75822H14.1764V9.75893Z" fill="#252636"/>
<path d="M17.9265 9.75893V0.241699H20.2383V9.75893H17.9265Z" fill="#252636"/>
<path d="M21.4922 9.75893V0.241699H23.804V7.75623H27.4868V9.75893H21.4922Z" fill="#252636"/>
<path d="M28.4922 9.75893V0.241699H30.804V7.75623H34.4868V9.75893H28.4922Z" fill="#252636"/>
<path d="M38.5729 9.75893L36.4894 6.39865L34.4867 9.75893H31.7446L35.0787 4.73128L32.0133 0.241699H34.7823L36.5568 3.19931L38.3042 0.241699H40.979L37.9682 4.73128L41.4093 9.75893H38.5729Z" fill="#252636"/>
</svg>
